<svg xmlns="http://www.w3.org/2000/svg" xmlns:xlink="http://www.w3.org/1999/xlink" width="500" zoomAndPan="magnify" viewBox="0 0 375 374.999991" height="500" preserveAspectRatio="xMidYMid meet" version="1.0"><defs><clipPath id="804e7f6d07"><path d="M 0 27.65625 L 375 27.65625 L 375 347.15625 L 0 347.15625 Z M 0 27.65625 " clip-rule="nonzero"/></clipPath><clipPath id="e5674a9b1d"><path d="M 0 27.65625 L 375 27.65625 L 375 56 L 0 56 Z M 0 27.65625 " clip-rule="nonzero"/></clipPath></defs><g clip-path="url(#804e7f6d07)"><path fill="#efefef" d="M 375 41.679688 L 375 333.132812 C 375 340.765625 368.808594 347.035156 361.089844 347.035156 L 13.910156 347.035156 C 6.269531 347.035156 0 340.847656 0 333.132812 L 0 41.679688 C 0 34.046875 6.191406 27.777344 13.910156 27.777344 L 361.089844 27.777344 C 368.730469 27.859375 375 34.046875 375 41.679688 Z M 375 41.679688 " fill-opacity="1" fill-rule="evenodd"/></g><g clip-path="url(#e5674a9b1d)"><path fill="#00a5d4" d="M 375 41.679688 L 375 55.582031 L 0 55.582031 L 0 41.679688 C 0 34.046875 6.191406 27.777344 13.910156 27.777344 L 361.089844 27.777344 C 368.730469 27.859375 375 34.046875 375 41.679688 Z M 375 41.679688 " fill-opacity="1" fill-rule="nonzero"/></g><path fill="#e8ffef" d="M 27.898438 42.164062 C 27.898438 45.777344 24.925781 48.753906 21.308594 48.753906 C 17.6875 48.753906 14.714844 45.777344 14.714844 42.164062 C 14.714844 38.546875 17.6875 35.574219 21.308594 35.574219 C 24.925781 35.574219 27.898438 38.546875 27.898438 42.164062 Z M 27.898438 42.164062 " fill-opacity="1" fill-rule="evenodd"/><path fill="#e8ffef" d="M 45.105469 42.164062 C 45.105469 42.59375 45.0625 43.023438 44.980469 43.449219 C 44.894531 43.871094 44.769531 44.285156 44.605469 44.683594 C 44.4375 45.085938 44.234375 45.464844 43.996094 45.824219 C 43.753906 46.183594 43.480469 46.515625 43.175781 46.820312 C 42.867188 47.128906 42.535156 47.402344 42.175781 47.640625 C 41.816406 47.882812 41.4375 48.085938 41.035156 48.25 C 40.636719 48.417969 40.222656 48.542969 39.800781 48.625 C 39.375 48.710938 38.945312 48.753906 38.511719 48.753906 C 38.082031 48.753906 37.652344 48.710938 37.226562 48.625 C 36.800781 48.542969 36.390625 48.417969 35.988281 48.25 C 35.589844 48.085938 35.210938 47.882812 34.851562 47.640625 C 34.488281 47.402344 34.15625 47.128906 33.851562 46.820312 C 33.546875 46.515625 33.273438 46.183594 33.03125 45.824219 C 32.789062 45.464844 32.585938 45.085938 32.421875 44.683594 C 32.257812 44.285156 32.132812 43.871094 32.046875 43.449219 C 31.960938 43.023438 31.921875 42.59375 31.921875 42.164062 C 31.921875 41.730469 31.960938 41.300781 32.046875 40.878906 C 32.132812 40.453125 32.257812 40.042969 32.421875 39.640625 C 32.585938 39.242188 32.789062 38.863281 33.03125 38.503906 C 33.273438 38.140625 33.546875 37.808594 33.851562 37.503906 C 34.15625 37.199219 34.488281 36.925781 34.851562 36.683594 C 35.210938 36.445312 35.589844 36.242188 35.988281 36.074219 C 36.390625 35.910156 36.800781 35.785156 37.226562 35.699219 C 37.652344 35.617188 38.082031 35.574219 38.511719 35.574219 C 38.945312 35.574219 39.375 35.617188 39.800781 35.699219 C 40.222656 35.785156 40.636719 35.910156 41.035156 36.074219 C 41.4375 36.242188 41.816406 36.445312 42.175781 36.683594 C 42.535156 36.925781 42.867188 37.199219 43.175781 37.503906 C 43.480469 37.808594 43.753906 38.140625 43.996094 38.503906 C 44.234375 38.863281 44.4375 39.242188 44.605469 39.640625 C 44.769531 40.042969 44.894531 40.453125 44.980469 40.878906 C 45.0625 41.300781 45.105469 41.730469 45.105469 42.164062 Z M 45.105469 42.164062 " fill-opacity="1" fill-rule="nonzero"/><path fill="#e8ffef" d="M 62.3125 42.164062 C 62.3125 42.59375 62.269531 43.023438 62.1875 43.449219 C 62.101562 43.871094 61.976562 44.285156 61.808594 44.683594 C 61.644531 45.085938 61.441406 45.464844 61.203125 45.824219 C 60.960938 46.183594 60.6875 46.515625 60.382812 46.820312 C 60.074219 47.128906 59.742188 47.402344 59.382812 47.640625 C 59.023438 47.882812 58.640625 48.085938 58.242188 48.25 C 57.84375 48.417969 57.429688 48.542969 57.003906 48.625 C 56.582031 48.710938 56.152344 48.753906 55.71875 48.753906 C 55.285156 48.753906 54.859375 48.710938 54.433594 48.625 C 54.007812 48.542969 53.597656 48.417969 53.195312 48.25 C 52.796875 48.085938 52.417969 47.882812 52.054688 47.640625 C 51.695312 47.402344 51.363281 47.128906 51.058594 46.820312 C 50.75 46.515625 50.476562 46.183594 50.238281 45.824219 C 49.996094 45.464844 49.792969 45.085938 49.628906 44.683594 C 49.460938 44.285156 49.335938 43.871094 49.253906 43.449219 C 49.167969 43.023438 49.125 42.59375 49.125 42.164062 C 49.125 41.730469 49.167969 41.300781 49.253906 40.878906 C 49.335938 40.453125 49.460938 40.042969 49.628906 39.640625 C 49.792969 39.242188 49.996094 38.863281 50.238281 38.503906 C 50.476562 38.140625 50.75 37.808594 51.058594 37.503906 C 51.363281 37.199219 51.695312 36.925781 52.054688 36.683594 C 52.417969 36.445312 52.796875 36.242188 53.195312 36.074219 C 53.597656 35.910156 54.007812 35.785156 54.433594 35.699219 C 54.859375 35.617188 55.285156 35.574219 55.71875 35.574219 C 56.152344 35.574219 56.582031 35.617188 57.003906 35.699219 C 57.429688 35.785156 57.84375 35.910156 58.242188 36.074219 C 58.640625 36.242188 59.023438 36.445312 59.382812 36.683594 C 59.742188 36.925781 60.074219 37.199219 60.382812 37.503906 C 60.6875 37.808594 60.960938 38.140625 61.203125 38.503906 C 61.441406 38.863281 61.644531 39.242188 61.808594 39.640625 C 61.976562 40.042969 62.101562 40.453125 62.1875 40.878906 C 62.269531 41.300781 62.3125 41.730469 62.3125 42.164062 Z M 62.3125 42.164062 " fill-opacity="1" fill-rule="nonzero"/><path fill="#bdccc0" d="M 140.382812 102.269531 L 130.816406 102.269531 L 129.207031 106.847656 L 124.140625 106.847656 L 132.824219 82.742188 L 138.453125 82.742188 L 147.136719 106.847656 L 141.992188 106.847656 Z M 139.015625 98.410156 L 135.558594 88.367188 L 132.101562 98.410156 Z M 139.015625 98.410156 " fill-opacity="1" fill-rule="nonzero"/><path fill="#bdccc0" d="M 162.734375 106.847656 L 157.429688 97.449219 L 155.179688 97.449219 L 155.179688 106.847656 L 150.355469 106.847656 L 150.355469 82.742188 L 159.359375 82.742188 C 161.207031 82.742188 162.816406 83.0625 164.101562 83.707031 C 165.390625 84.351562 166.433594 85.234375 167.078125 86.359375 C 167.722656 87.484375 168.042969 88.6875 168.042969 90.136719 C 168.042969 91.742188 167.558594 93.1875 166.675781 94.472656 C 165.792969 95.761719 164.34375 96.644531 162.574219 97.125 L 168.363281 106.929688 L 162.734375 106.929688 Z M 155.179688 93.832031 L 159.199219 93.832031 C 160.484375 93.832031 161.53125 93.511719 162.171875 92.867188 C 162.816406 92.226562 163.136719 91.339844 163.136719 90.214844 C 163.136719 89.089844 162.816406 88.289062 162.171875 87.644531 C 161.53125 87 160.566406 86.761719 159.199219 86.761719 L 155.179688 86.761719 Z M 155.179688 93.832031 " fill-opacity="1" fill-rule="nonzero"/><path fill="#bdccc0" d="M 188.867188 82.742188 L 188.867188 86.679688 L 182.433594 86.679688 L 182.433594 106.847656 L 177.609375 106.847656 L 177.609375 86.679688 L 171.179688 86.679688 L 171.179688 82.742188 Z M 188.867188 82.742188 " fill-opacity="1" fill-rule="nonzero"/><path fill="#bdccc0" d="M 192.40625 82.742188 L 197.230469 82.742188 L 197.230469 106.847656 L 192.40625 106.847656 Z M 192.40625 82.742188 " fill-opacity="1" fill-rule="nonzero"/><path fill="#bdccc0" d="M 202.453125 88.449219 C 203.5 86.601562 205.027344 85.074219 206.878906 84.027344 C 208.726562 82.984375 210.816406 82.421875 213.148438 82.421875 C 215.882812 82.421875 218.214844 83.144531 220.222656 84.511719 C 222.234375 85.875 223.679688 87.804688 224.484375 90.214844 L 218.855469 90.214844 C 218.292969 89.089844 217.492188 88.207031 216.527344 87.644531 C 215.5625 87.082031 214.355469 86.761719 213.066406 86.761719 C 211.703125 86.761719 210.414062 87.082031 209.289062 87.726562 C 208.164062 88.367188 207.359375 89.332031 206.714844 90.539062 C 206.074219 91.742188 205.832031 93.109375 205.832031 94.714844 C 205.832031 96.324219 206.152344 97.6875 206.714844 98.894531 C 207.359375 100.097656 208.164062 101.0625 209.289062 101.707031 C 210.414062 102.347656 211.621094 102.671875 213.066406 102.671875 C 214.355469 102.671875 215.5625 102.347656 216.527344 101.785156 C 217.492188 101.222656 218.292969 100.339844 218.855469 99.214844 L 224.40625 99.214844 C 223.601562 101.707031 222.152344 103.636719 220.144531 105 C 218.132812 106.367188 215.722656 107.089844 213.066406 107.089844 C 210.738281 107.089844 208.644531 106.527344 206.796875 105.484375 C 204.949219 104.4375 203.5 102.992188 202.375 101.144531 C 201.328125 99.296875 200.765625 97.125 200.765625 94.796875 C 200.847656 92.464844 201.410156 90.296875 202.453125 88.449219 Z M 202.453125 88.449219 " fill-opacity="1" fill-rule="nonzero"/><path fill="#bdccc0" d="M 233.410156 103.074219 L 241.371094 103.074219 L 241.371094 106.929688 L 228.585938 106.929688 L 228.585938 82.824219 L 233.410156 82.824219 Z M 233.410156 103.074219 " fill-opacity="1" fill-rule="nonzero"/><path fill="#bdccc0" d="M 249.25 86.679688 L 249.25 92.707031 L 257.371094 92.707031 L 257.371094 96.5625 L 249.25 96.5625 L 249.25 102.992188 L 258.414062 102.992188 L 258.414062 106.929688 L 244.425781 106.929688 L 244.425781 82.824219 L 258.414062 82.824219 L 258.414062 86.761719 L 249.25 86.761719 Z M 249.25 86.679688 " fill-opacity="1" fill-rule="nonzero"/><path fill="#bdccc0" d="M 203.984375 127.984375 L 344.929688 127.984375 L 344.929688 130.714844 L 203.984375 130.714844 Z M 203.984375 127.984375 " fill-opacity="1" fill-rule="nonzero"/><path fill="#bdccc0" d="M 203.984375 146.785156 L 344.929688 146.785156 L 344.929688 149.519531 L 203.984375 149.519531 Z M 203.984375 146.785156 " fill-opacity="1" fill-rule="nonzero"/><path fill="#bdccc0" d="M 203.984375 165.589844 L 344.929688 165.589844 L 344.929688 168.320312 L 203.984375 168.320312 Z M 203.984375 165.589844 " fill-opacity="1" fill-rule="nonzero"/><path fill="#bdccc0" d="M 203.984375 184.472656 L 344.929688 184.472656 L 344.929688 187.207031 L 203.984375 187.207031 Z M 203.984375 184.472656 " fill-opacity="1" fill-rule="nonzero"/><path fill="#bdccc0" d="M 203.984375 203.277344 L 344.929688 203.277344 L 344.929688 206.007812 L 203.984375 206.007812 Z M 203.984375 203.277344 " fill-opacity="1" fill-rule="nonzero"/><path fill="#bdccc0" d="M 32.160156 222.160156 L 173.109375 222.160156 L 173.109375 224.890625 L 32.160156 224.890625 Z M 32.160156 222.160156 " fill-opacity="1" fill-rule="nonzero"/><path fill="#bdccc0" d="M 203.984375 222.160156 L 344.929688 222.160156 L 344.929688 224.890625 L 203.984375 224.890625 Z M 203.984375 222.160156 " fill-opacity="1" fill-rule="nonzero"/><path fill="#bdccc0" d="M 32.160156 240.964844 L 173.109375 240.964844 L 173.109375 243.695312 L 32.160156 243.695312 Z M 32.160156 240.964844 " fill-opacity="1" fill-rule="nonzero"/><path fill="#bdccc0" d="M 203.984375 240.964844 L 344.929688 240.964844 L 344.929688 243.695312 L 203.984375 243.695312 Z M 203.984375 240.964844 " fill-opacity="1" fill-rule="nonzero"/><path fill="#bdccc0" d="M 32.160156 259.765625 L 173.109375 259.765625 L 173.109375 262.5 L 32.160156 262.5 Z M 32.160156 259.765625 " fill-opacity="1" fill-rule="nonzero"/><path fill="#bdccc0" d="M 203.984375 259.765625 L 344.929688 259.765625 L 344.929688 262.5 L 203.984375 262.5 Z M 203.984375 259.765625 " fill-opacity="1" fill-rule="nonzero"/><path fill="#bdccc0" d="M 32.160156 278.652344 L 173.109375 278.652344 L 173.109375 281.382812 L 32.160156 281.382812 Z M 32.160156 278.652344 " fill-opacity="1" fill-rule="nonzero"/><path fill="#bdccc0" d="M 203.984375 278.652344 L 344.929688 278.652344 L 344.929688 281.382812 L 203.984375 281.382812 Z M 203.984375 278.652344 " fill-opacity="1" fill-rule="nonzero"/><path fill="#bdccc0" d="M 32.160156 297.453125 L 173.109375 297.453125 L 173.109375 300.1875 L 32.160156 300.1875 Z M 32.160156 297.453125 " fill-opacity="1" fill-rule="nonzero"/><path fill="#bdccc0" d="M 203.984375 297.453125 L 344.929688 297.453125 L 344.929688 300.1875 L 203.984375 300.1875 Z M 203.984375 297.453125 " fill-opacity="1" fill-rule="nonzero"/><path fill="#bdccc0" d="M 32.160156 316.257812 L 173.109375 316.257812 L 173.109375 318.988281 L 32.160156 318.988281 Z M 32.160156 316.257812 " fill-opacity="1" fill-rule="nonzero"/><path fill="#bdccc0" d="M 203.984375 316.257812 L 344.929688 316.257812 L 344.929688 318.988281 L 203.984375 318.988281 Z M 203.984375 316.257812 " fill-opacity="1" fill-rule="nonzero"/><path fill="#5a6091" d="M 32.886719 130.714844 L 171.742188 130.714844 L 171.742188 208.820312 L 32.886719 208.820312 Z M 32.886719 130.714844 " fill-opacity="1" fill-rule="nonzero"/><path fill="#00b2e6" d="M 171.742188 191.945312 L 171.742188 208.820312 L 32.886719 208.820312 L 32.886719 189.132812 L 85.226562 164.867188 L 108.945312 188.652344 L 138.9375 170.492188 Z M 171.742188 191.945312 " fill-opacity="1" fill-rule="nonzero"/><path fill="#00b2e6" d="M 125.1875 160.367188 C 125.1875 167.195312 119.640625 172.660156 112.886719 172.660156 C 106.050781 172.660156 100.585938 167.117188 100.585938 160.367188 C 100.585938 153.535156 106.132812 148.070312 112.886719 148.070312 C 119.640625 148.070312 125.1875 153.535156 125.1875 160.367188 Z M 125.1875 160.367188 " fill-opacity="1" fill-rule="nonzero"/></svg>