<svg xmlns="http://www.w3.org/2000/svg" xmlns:xlink="http://www.w3.org/1999/xlink" width="500" zoomAndPan="magnify" viewBox="0 0 375 374.999991" height="500" preserveAspectRatio="xMidYMid meet" version="1.0"><defs><clipPath id="25043d98d4"><path d="M 0 45.453125 L 375 45.453125 L 375 329.703125 L 0 329.703125 Z M 0 45.453125 " clip-rule="nonzero"/></clipPath></defs><g clip-path="url(#25043d98d4)"><path fill="#1e3f48" d="M 371.058594 226.832031 C 365.839844 228.132812 360.480469 228.226562 355.152344 228.535156 C 346.929688 229.003906 338.726562 229.621094 330.609375 231.125 C 329.300781 231.371094 328.492188 231.914062 327.648438 232.933594 C 317.269531 245.496094 309.019531 259.558594 299.558594 272.773438 C 288.476562 288.253906 277.320312 303.679688 265.796875 318.835938 C 263.382812 322.007812 261.738281 325.800781 258.058594 327.898438 C 255.972656 329.082031 253.964844 329.625 251.429688 329.210938 C 221.753906 324.371094 192.21875 318.652344 162.367188 314.890625 C 145.234375 312.734375 128.40625 308.714844 111.363281 305.988281 C 98.0625 303.855469 84.609375 302.570312 71.480469 299.507812 C 60.011719 296.835938 48.792969 293.0625 37.289062 290.59375 C 27.894531 288.578125 18.90625 285.433594 9.78125 282.628906 C 7.898438 282.050781 6.484375 280.847656 6.378906 278.917969 C 6.019531 272.328125 2.886719 266.523438 1.359375 260.269531 C 0.0117188 254.761719 0.222656 249.605469 4.53125 245.40625 C 12.019531 238.117188 17.777344 229.507812 23.59375 220.921875 C 24.964844 218.898438 26.453125 216.90625 28.152344 215.152344 C 41.765625 201.128906 52.128906 184.410156 65.472656 170.152344 C 68.257812 167.175781 70.203125 163.417969 72.585938 160.058594 C 73.863281 158.257812 74.007812 156.59375 73.007812 154.507812 C 70.941406 150.199219 69.378906 145.667969 68.136719 141.042969 C 66.957031 136.65625 68.1875 134.65625 72.5625 133.808594 C 80.382812 132.292969 80.242188 132.277344 81.207031 123.582031 C 81.691406 119.226562 81.398438 114.671875 83.976562 110.675781 C 84.730469 109.507812 85.472656 108.605469 86.636719 107.886719 C 97.652344 101.101562 109.839844 97.886719 122.46875 95.929688 C 129.539062 94.835938 136.617188 94.15625 142.394531 94.5 C 157.644531 94.375 171.355469 95.449219 184.515625 100.265625 C 185.871094 100.761719 186.34375 100.382812 186.726562 99.296875 C 188.027344 95.574219 190.808594 93.003906 193.535156 90.347656 C 195.769531 88.171875 197.878906 85.863281 199.945312 83.53125 C 204.472656 78.421875 209.25 73.738281 215.261719 70.226562 C 222.648438 65.914062 229.363281 60.558594 237.082031 56.65625 C 246.53125 51.878906 256.667969 50.195312 266.847656 48.382812 C 274.308594 47.054688 281.832031 46.140625 289.390625 45.867188 C 297.777344 45.5625 299.765625 46.933594 302.894531 53.976562 C 305.464844 59.769531 307.488281 65.804688 310.035156 71.605469 C 318.949219 91.925781 329.441406 111.433594 340.804688 130.46875 C 345.507812 138.34375 348.570312 146.980469 352.84375 155.058594 C 356.070312 161.160156 359.269531 167.257812 362.695312 173.257812 C 366.476562 179.882812 366.390625 179.65625 359.445312 183.308594 C 357.191406 184.492188 356.640625 185.011719 358.472656 187.058594 C 361.21875 190.128906 363.617188 193.507812 366.289062 196.640625 C 368.808594 199.589844 369.328125 202.96875 368.726562 206.597656 C 368.230469 209.601562 368.554688 212.234375 370.605469 214.714844 C 372.226562 216.675781 373.410156 219.019531 374.164062 221.484375 C 375.035156 224.324219 373.960938 226.109375 371.058594 226.832031 Z M 371.058594 226.832031 " fill-opacity="1" fill-rule="nonzero"/></g><path fill="#767fa7" d="M 367.96875 217.582031 C 370.722656 222.488281 372.148438 223.46875 365.648438 224.222656 C 362.003906 224.644531 358.328125 225.019531 354.667969 225.050781 C 335.765625 225.21875 317.726562 229.550781 299.878906 235.445312 C 285.617188 240.15625 271.59375 245.34375 258.089844 251.894531 C 252.953125 254.386719 247.574219 252.886719 241.617188 253.503906 C 227.945312 252.15625 213.589844 253.164062 199.265625 254.125 C 186.296875 254.996094 173.457031 257.152344 160.574219 258.882812 C 150.40625 260.25 140.507812 262.582031 130.570312 264.917969 C 124.996094 266.230469 124.355469 265.644531 122.746094 260.359375 C 120.480469 252.902344 117.640625 245.632812 113.886719 238.816406 C 107.683594 227.566406 104.621094 214.984375 98.8125 203.625 C 89.6875 185.777344 83.824219 166.535156 74.824219 148.644531 C 73.484375 145.980469 72.765625 143.007812 71.570312 140.261719 C 70.867188 138.648438 71.359375 138.007812 72.898438 137.738281 C 74.539062 137.449219 76.175781 137.148438 77.816406 136.855469 C 78.933594 136.660156 79.492188 136.886719 79.929688 138.203125 C 81.535156 143.042969 83.484375 147.769531 85.144531 152.589844 C 89.136719 164.164062 94.8125 174.976562 100.121094 185.953125 C 102.449219 190.769531 103.164062 196.105469 105.542969 200.933594 C 110.835938 211.675781 115.847656 222.550781 119.90625 233.863281 C 122.003906 239.714844 123.289062 245.832031 125.9375 251.5 C 127.691406 255.25 128.617188 255.960938 132.996094 255.1875 C 137.808594 254.339844 142.59375 253.335938 147.386719 252.367188 C 169.667969 247.867188 192.019531 244.003906 214.871094 244.109375 C 224.992188 244.160156 234.738281 246.453125 244.476562 248.773438 C 248.0625 249.628906 251.277344 249.40625 254.335938 247.320312 C 267.386719 238.417969 281.714844 232.144531 296.550781 226.992188 C 308.96875 222.675781 321.691406 219.5 334.796875 218.136719 C 339.554688 217.640625 344.359375 217.582031 349.140625 217.328125 C 354.796875 217.03125 360.503906 218.011719 366.109375 216.667969 C 367.128906 216.425781 367.566406 216.871094 367.96875 217.582031 Z M 367.96875 217.582031 " fill-opacity="1" fill-rule="nonzero"/><path fill="#e48d7a" d="M 26.269531 253.515625 C 19.855469 251.882812 13.21875 251.121094 6.582031 249.96875 C 30.113281 220.347656 53.386719 191.042969 76.625 161.789062 C 79.277344 166.867188 81.210938 172.789062 83.597656 178.515625 C 83.960938 179.382812 83.628906 179.949219 83.179688 180.644531 C 67.878906 204.246094 51.777344 227.292969 35.082031 249.929688 C 32.722656 253.125 30.53125 254.605469 26.269531 253.515625 Z M 277.84375 247.210938 C 271.125 249.792969 264.417969 252.421875 257.679688 254.949219 C 253.71875 256.433594 249.613281 257.78125 245.371094 257.167969 C 242.824219 256.796875 241.808594 257.808594 240.726562 259.699219 C 234.871094 269.914062 226.054688 274.582031 214.300781 273.441406 C 208.894531 272.917969 204.140625 270.351562 199.21875 268.320312 C 195.65625 266.847656 192.902344 264.316406 191.320312 260.957031 C 190.253906 258.695312 188.925781 258.488281 186.929688 258.703125 C 173.558594 260.132812 160.335938 262.578125 147.046875 264.570312 C 140.589844 265.535156 134.53125 268.507812 127.808594 268.269531 C 122.078125 268.066406 121.101562 267.449219 119.527344 262.125 C 117.921875 256.683594 115.792969 251.4375 113.53125 246.25 C 109.09375 236.082031 103.769531 226.332031 100.167969 215.753906 C 97.941406 209.207031 95.105469 202.769531 91.683594 196.71875 C 76.742188 216.199219 67.777344 239.414062 51.144531 257.761719 C 58.628906 259.40625 65.691406 260.824219 72.6875 262.527344 C 85.171875 265.566406 97.40625 269.574219 110.027344 272.113281 C 123.769531 274.878906 137.710938 276.019531 151.613281 277.585938 C 166.726562 279.292969 181.917969 280.332031 196.953125 282.773438 C 206.921875 284.394531 217.101562 284.59375 226.972656 286.886719 C 232.835938 288.25 238.726562 289.152344 244.730469 289.535156 C 246.382812 289.640625 247.078125 289.195312 247.867188 287.9375 C 249.636719 285.113281 251.410156 282.257812 253.472656 279.644531 C 261.824219 269.070312 270.285156 258.582031 278.703125 248.0625 C 279.464844 247.644531 280.066406 247.074219 280.460938 246.175781 C 279.390625 246.15625 278.550781 246.503906 277.84375 247.210938 Z M 277.84375 247.210938 " fill-opacity="1" fill-rule="nonzero"/><path fill="#daa972" d="M 314.710938 236.675781 C 308.398438 246.105469 302.066406 255.539062 295.28125 264.628906 C 290.222656 271.402344 284.085938 277.375 279.09375 284.195312 C 273.957031 291.214844 267.761719 297.371094 263.054688 304.71875 C 260.71875 308.367188 257.929688 311.730469 255.277344 315.171875 C 254.460938 316.230469 253.4375 317.265625 251.898438 316.886719 C 250.359375 316.503906 250.058594 315.15625 249.785156 313.796875 C 248.570312 307.8125 247.203125 301.855469 246.136719 295.84375 C 245.667969 293.214844 244.769531 291.902344 241.839844 292.25 C 239.765625 292.496094 237.546875 292.464844 235.515625 292.007812 C 223.671875 289.332031 211.597656 288.3125 199.625 286.550781 C 179.476562 283.585938 159.226562 281.695312 139 279.613281 C 119.914062 277.648438 101.253906 273.960938 82.945312 268.371094 C 72.359375 265.136719 61.53125 263.09375 50.554688 260.90625 C 51.929688 270.277344 53.242188 279.34375 54.601562 288.402344 C 54.859375 290.144531 55.609375 291.261719 57.667969 291.671875 C 61.910156 292.515625 66.039062 293.929688 70.269531 294.835938 C 83.558594 297.683594 97.0625 299.183594 110.476562 301.253906 C 129.0625 304.121094 147.410156 308.457031 166.089844 310.71875 C 194.621094 314.175781 222.832031 319.59375 251.132812 324.453125 C 255.839844 325.257812 258.171875 323.695312 260.417969 320.289062 C 264.34375 314.335938 268.332031 308.433594 273.039062 303.039062 C 279.433594 295.71875 284.265625 287.269531 289.835938 279.355469 C 300.285156 264.511719 310.925781 249.800781 321.484375 235.035156 C 321.804688 234.589844 322.210938 234.171875 321.910156 233.363281 C 318.960938 233.191406 316.609375 233.839844 314.710938 236.675781 Z M 234.683594 309.457031 C 233.65625 310.957031 234.003906 313.664062 231.351562 313.375 C 227.773438 312.886719 224.375 312.722656 221.222656 312.035156 C 217.960938 311.320312 215.785156 308.097656 213.53125 305.53125 C 213.316406 305.285156 213.375 304.675781 213.492188 304.292969 C 213.988281 302.683594 219.457031 299.320312 221.183594 299.421875 C 224.058594 299.585938 226.851562 300.445312 229.773438 300.242188 C 232.453125 300.058594 233.183594 302.792969 234.910156 304.050781 C 237.332031 305.8125 235.925781 307.636719 234.683594 309.457031 Z M 38.09375 280.996094 C 38.6875 282.738281 39.003906 284.574219 39.519531 286.636719 C 31.585938 285.230469 24.226562 283.132812 16.902344 280.421875 C 12.234375 278.691406 9.910156 276.722656 9.371094 271.703125 C 8.960938 267.910156 7.171875 264.265625 6.007812 260.550781 C 5.742188 259.699219 5.507812 258.839844 5.304688 257.972656 C 3.964844 252.21875 4.316406 251.921875 9.878906 253.09375 C 16.058594 254.398438 22.277344 255.542969 28.496094 256.660156 C 29.722656 256.882812 30.5625 257.203125 30.902344 258.511719 C 32.878906 266.140625 35.550781 273.546875 38.09375 280.996094 Z M 193.3125 258.074219 C 207.980469 257.277344 222.296875 256.390625 237.007812 256.898438 C 231.746094 267.378906 220.960938 271.640625 209.363281 267.765625 C 205.292969 266.40625 200.960938 265.488281 197.40625 262.84375 C 195.894531 261.71875 194.535156 260.40625 193.3125 258.074219 Z M 163.230469 168.5625 C 167.546875 179.945312 171.925781 191.300781 176.3125 202.742188 C 172.59375 204.257812 168.851562 203.332031 165.28125 203.964844 C 159.5625 204.972656 154.089844 206.722656 148.960938 209.429688 C 147.058594 210.433594 146.242188 210.152344 145.546875 208.015625 C 142.277344 198 138.757812 188.066406 134.722656 178.332031 C 133.546875 175.5 132 172.824219 130.660156 170.144531 C 140.046875 167.140625 149.40625 165.679688 159.023438 165.734375 C 161.328125 165.746094 162.460938 166.527344 163.230469 168.5625 Z M 163.230469 168.5625 " fill-opacity="1" fill-rule="nonzero"/><path fill="#e5dad8" d="M 89.621094 124.59375 C 94.34375 137.886719 100.90625 150.417969 105.75 163.65625 C 109 172.542969 112.492188 181.324219 117.332031 189.484375 C 120.070312 194.105469 122.132812 198.984375 123.746094 204.089844 C 126.523438 212.863281 130.378906 221.277344 132.503906 230.28125 C 132.957031 232.183594 134.046875 233.933594 134.679688 235.378906 C 170.800781 218.652344 207.382812 215.832031 245.3125 228.917969 C 243.675781 223.597656 241.617188 218.480469 239.042969 213.570312 C 231.558594 199.28125 224.296875 184.871094 216.535156 170.738281 C 208.628906 156.34375 204.070312 140.554688 197.125 125.769531 C 194.519531 120.230469 191.195312 115.050781 188.863281 109.429688 C 187.359375 105.804688 185.082031 104.097656 181.527344 103.183594 C 160.941406 97.894531 140.21875 97.101562 119.316406 100.988281 C 108.3125 103.035156 97.71875 106.175781 88.003906 111.949219 C 86.054688 113.105469 85.640625 114.101562 86.570312 116.171875 C 87.789062 118.890625 88.617188 121.78125 89.621094 124.59375 Z M 177.589844 206.585938 C 167.960938 206.851562 158.703125 208.738281 149.753906 212.410156 C 145.128906 214.308594 144.632812 213.742188 142.628906 209.066406 C 137.425781 196.933594 133.902344 184.144531 128.101562 172.242188 C 126.363281 168.679688 127.117188 167.746094 131.058594 166.929688 C 135.816406 165.949219 140.273438 163.796875 145.183594 163.355469 C 148.601562 163.050781 152.003906 162.558594 155.414062 162.148438 C 155.417969 162.269531 155.425781 162.386719 155.429688 162.507812 C 157.539062 162.507812 159.648438 162.523438 161.753906 162.503906 C 164.378906 162.476562 165.390625 164.261719 166.152344 166.347656 C 169.515625 175.617188 172.875 184.886719 176.253906 194.148438 C 177.390625 197.265625 178.5 200.398438 179.773438 203.460938 C 180.753906 205.824219 179.707031 206.527344 177.589844 206.585938 Z M 225.714844 205.386719 C 225.34375 207.1875 223.6875 206.648438 222.683594 206.398438 C 218.367188 205.328125 214.019531 204.703125 209.589844 204.214844 C 205.074219 203.71875 200.726562 204.265625 196.34375 204.832031 C 194.5625 205.0625 192.808594 205.074219 191.035156 205.125 C 190.109375 205.152344 189.121094 204.96875 189.113281 203.820312 C 189.109375 202.9375 189.9375 202.578125 190.75 202.445312 C 195.554688 201.675781 200.363281 200.914062 204.492188 200.261719 C 211.390625 201.011719 217.589844 201.492188 223.535156 203.46875 C 224.523438 203.796875 226.050781 203.765625 225.714844 205.386719 Z M 217.152344 192.355469 C 218.417969 192.785156 220.074219 193.121094 219.570312 194.867188 C 219.121094 196.429688 217.4375 195.90625 216.367188 195.644531 C 210.410156 194.179688 204.285156 193.976562 198.347656 192.972656 C 194.386719 193.460938 190.53125 194.078125 186.632812 193.832031 C 185.761719 193.777344 184.375 194.273438 184.320312 192.710938 C 184.269531 191.296875 185.71875 191.265625 186.519531 191.210938 C 192.894531 190.75 199.210938 188.941406 205.6875 190.441406 C 209.460938 191.316406 213.429688 191.097656 217.152344 192.355469 Z M 210.503906 177.191406 C 210.5 178.246094 209.710938 178.398438 208.890625 178.417969 C 208.113281 178.4375 207.332031 178.421875 205.789062 178.421875 C 199.28125 176.640625 192.207031 178.179688 185.109375 179.582031 C 183.96875 179.808594 182.382812 180.070312 182.085938 178.40625 C 181.75 176.527344 183.308594 176.40625 184.679688 176.21875 C 188.953125 175.628906 193.207031 174.855469 197.496094 174.421875 C 201.402344 174.023438 205.183594 175.433594 209.0625 175.660156 C 209.945312 175.714844 210.507812 176.273438 210.503906 177.191406 Z M 200.925781 162.335938 C 202.683594 162.410156 204.464844 162.878906 205.886719 164.070312 C 206.480469 164.566406 207.011719 165.207031 206.523438 166.085938 C 206.152344 166.757812 205.507812 167.046875 204.824219 166.820312 C 196.03125 163.925781 186.941406 165.308594 177.976562 164.9375 C 177.644531 164.921875 177.308594 164.9375 176.976562 164.917969 C 176.03125 164.855469 175.105469 164.601562 174.988281 163.527344 C 174.84375 162.226562 175.941406 161.71875 176.90625 161.683594 C 179.910156 161.5625 182.921875 161.636719 184.96875 161.636719 C 190.96875 161.074219 195.921875 162.128906 200.925781 162.335938 Z M 192.878906 146.628906 C 194.125 146.984375 195.367188 147.5 194.921875 149.101562 C 194.519531 150.542969 193.148438 150.355469 192.109375 150.097656 C 182.132812 147.621094 171.949219 147.785156 161.875 148.453125 C 148.726562 149.324219 135.425781 149.316406 122.578125 152.914062 C 120.023438 153.628906 117.574219 154.730469 115.027344 155.476562 C 114.148438 155.730469 112.765625 155.992188 112.339844 154.847656 C 111.84375 153.507812 113.347656 153.386719 114.113281 152.984375 C 120.886719 149.398438 128.191406 147.59375 135.757812 146.949219 C 147.378906 145.953125 158.96875 144.417969 171.898438 144.8125 C 177.46875 144.710938 184.257812 144.71875 190.949219 146.148438 C 191.597656 146.285156 192.242188 146.445312 192.878906 146.628906 Z M 189.460938 130.625 C 189.039062 132.738281 187.117188 131.972656 185.578125 131.699219 C 170.808594 129.0625 156.125 130.507812 141.410156 132.40625 C 131.378906 133.703125 121.453125 135.367188 111.757812 138.28125 C 111.234375 138.441406 110.632812 138.710938 110.15625 138.585938 C 109.386719 138.382812 108.140625 138.539062 108.109375 137.375 C 108.085938 136.488281 109.0625 136.398438 109.800781 136.109375 C 120.207031 132.027344 131.140625 130.324219 142.113281 128.699219 C 150.488281 127.460938 158.871094 126.558594 167.660156 126.703125 C 173.71875 126.304688 180.019531 127.007812 186.28125 128.109375 C 187.769531 128.371094 189.878906 128.539062 189.460938 130.625 Z M 105.175781 118.65625 C 112.1875 114.171875 120.234375 112.796875 128.195312 111.433594 C 134.085938 110.421875 140.074219 109.761719 146.097656 109.90625 C 158.15625 109.988281 169.957031 111.996094 181.683594 114.609375 C 183.148438 114.933594 184.996094 115.304688 184.664062 117.039062 C 184.257812 119.136719 182.394531 118.464844 180.824219 118.109375 C 168.445312 115.300781 155.953125 112.921875 143.214844 113.597656 C 130.671875 114.257812 118.238281 115.964844 106.648438 121.394531 C 105.613281 121.878906 104.269531 122.875 103.4375 121.355469 C 102.585938 119.792969 104.21875 119.269531 105.175781 118.65625 Z M 362.492188 202.351562 C 363.636719 202.566406 365.074219 202.382812 364.941406 204.308594 C 364.804688 206.335938 363.316406 205.773438 362.226562 205.765625 C 357.546875 205.730469 352.878906 205.714844 348.222656 206.382812 C 326.0625 209.554688 303.816406 212.472656 283.199219 221.914062 C 274.882812 225.71875 265.84375 228.28125 258.949219 234.828125 C 257.878906 235.847656 256.484375 236.550781 255.648438 238.78125 C 289.4375 218.214844 325.859375 209.722656 364.621094 208.65625 C 363.730469 213.832031 363.730469 213.882812 358.460938 213.648438 C 330.902344 212.425781 304.886719 218.460938 279.738281 229.527344 C 270.925781 233.40625 262.355469 237.570312 254.652344 243.230469 C 249.835938 246.769531 245.085938 245.777344 240.496094 244.210938 C 222.847656 238.199219 204.964844 239.6875 186.957031 241.589844 C 168.660156 243.527344 150.835938 247.820312 132.945312 251.820312 C 132.539062 251.910156 132.089844 251.828125 131.605469 251.828125 C 131.699219 249.136719 132.917969 247.871094 135.4375 246.824219 C 148.515625 241.382812 161.949219 237.285156 176.011719 235.507812 C 187.828125 234.015625 199.691406 232.191406 211.613281 233.40625 C 220.425781 234.304688 229.023438 236.652344 237.617188 238.878906 C 240.875 239.71875 244.125 241.179688 247.765625 239.984375 C 235.796875 235.109375 223.4375 231.785156 210.511719 230.476562 C 197.421875 229.148438 184.515625 231.074219 171.644531 232.757812 C 158.601562 234.460938 146.253906 238.820312 134.21875 244.699219 C 133.953125 242.125 135.316406 240.699219 137.066406 239.429688 C 143.519531 234.761719 151.09375 232.953125 158.53125 230.621094 C 175.050781 225.4375 191.929688 224.007812 209.046875 225.449219 C 221.6875 226.511719 234.339844 227.925781 245.726562 234.371094 C 247.542969 235.398438 249.441406 235.425781 251.519531 234.78125 C 256.886719 233.117188 261.554688 230.105469 266.457031 227.523438 C 286.886719 216.777344 307.976562 207.746094 330.941406 204.050781 C 340.386719 202.53125 349.929688 201.589844 359.539062 201.914062 C 360.527344 201.949219 361.511719 202.167969 362.492188 202.351562 Z M 254.113281 290.421875 C 253.695312 291.054688 252.625 291.890625 253.851562 292.652344 C 254.851562 293.273438 255.578125 292.359375 256.046875 291.664062 C 259.609375 286.367188 264.199219 281.941406 268.285156 277.089844 C 276.171875 267.726562 284.214844 258.480469 290.957031 248.203125 C 292.773438 245.433594 295.71875 243.539062 297.550781 240.671875 C 298.261719 239.566406 299.730469 239.351562 301.742188 239.296875 C 298.121094 244.3125 295.292969 249.09375 291.734375 253.398438 C 280.734375 266.6875 269.140625 279.484375 258.679688 293.21875 C 257.535156 294.71875 256.542969 296.339844 255.523438 297.933594 C 255.082031 298.625 254.855469 299.574219 255.585938 300.054688 C 256.328125 300.546875 257.074219 299.878906 257.582031 299.273438 C 259.378906 297.144531 261.324219 295.109375 262.878906 292.808594 C 267.261719 286.332031 272.59375 280.621094 277.402344 274.488281 C 283.4375 266.789062 290.113281 259.601562 296.335938 252.046875 C 299.800781 247.839844 302.992188 243.398438 306.148438 238.949219 C 307.578125 236.929688 309.414062 236.167969 311.53125 236 C 293.875 262.550781 271.699219 285.617188 253.109375 312.246094 C 251.753906 305.910156 250.570312 300.296875 249.347656 294.691406 C 248.976562 292.996094 249.722656 291.742188 250.613281 290.390625 C 256.523438 281.445312 263.429688 273.265625 270.179688 264.980469 C 275.382812 258.59375 279.671875 251.519531 285.410156 245.519531 C 287.472656 243.367188 289.757812 242.777344 292.46875 241.878906 C 282.546875 255.21875 272.460938 268.019531 261.582031 280.175781 C 258.742188 283.351562 256.445312 286.894531 254.113281 290.421875 Z M 84.550781 125.75 C 83.984375 123.824219 84.617188 121.863281 85.164062 119.941406 C 89.035156 133.992188 95.964844 146.75 100.804688 160.300781 C 105.148438 172.449219 110.40625 184.132812 116.363281 195.613281 C 121.5 205.511719 124.878906 216.324219 127.898438 227.125 C 128.894531 230.683594 130.125 234.078125 131.808594 237.351562 C 132.351562 238.402344 133.417969 239.578125 131.878906 241.359375 C 129.023438 233.769531 124.652344 227.222656 122.097656 219.808594 C 120.222656 214.363281 118.128906 208.980469 115.367188 203.945312 C 109.972656 194.109375 106 183.6875 102.222656 173.179688 C 99.527344 165.6875 96.09375 158.511719 93.007812 151.191406 C 89.519531 142.917969 87.09375 134.320312 84.550781 125.75 Z M 84.234375 140.507812 C 83.269531 137.285156 82.9375 134.25 83.734375 130.824219 C 84.367188 132.898438 85.085938 134.949219 85.621094 137.050781 C 87.496094 144.378906 90.234375 151.414062 93.625 158.125 C 98.9375 168.636719 102.355469 179.867188 106.515625 190.804688 C 109.292969 198.105469 113.542969 204.625 116.523438 211.792969 C 117.195312 213.410156 117.871094 215.054688 118.359375 216.703125 C 120.980469 225.601562 125.996094 233.425781 129.511719 241.921875 C 130.632812 244.636719 130.832031 246.953125 128.980469 249.570312 C 126.144531 243.328125 124.542969 236.777344 122.179688 230.515625 C 118.050781 219.582031 112.480469 209.34375 107.917969 198.640625 C 104.753906 191.210938 102.03125 183.601562 98.511719 176.308594 C 92.914062 164.71875 87.925781 152.886719 84.234375 140.507812 Z M 363.875 199.015625 C 357.945312 198.515625 352.605469 198.566406 347.230469 198.890625 C 328.535156 200.015625 310.617188 204.117188 293.316406 211.371094 C 282.855469 215.757812 272.371094 220.023438 262.640625 225.925781 C 262.066406 226.625 261.328125 227.039062 260.4375 227.222656 C 260.183594 226.167969 260.945312 226.035156 261.617188 225.824219 C 264.835938 222.699219 268.410156 220.042969 272.414062 218.027344 C 283.738281 212.320312 294.957031 206.375 306.484375 201.109375 C 316.792969 196.394531 327.925781 193.890625 338.699219 190.421875 C 342.925781 189.058594 347.1875 187.792969 351.378906 186.324219 C 352.894531 185.789062 353.503906 186.046875 354.496094 187.410156 C 357.304688 191.261719 360.46875 194.851562 363.875 199.015625 Z M 358.949219 175.03125 C 355.316406 169.410156 352.394531 163.402344 349.167969 157.558594 C 344.480469 149.074219 340.953125 140.046875 336.066406 131.636719 C 323.316406 109.699219 310.621094 87.699219 301.871094 63.722656 C 300.351562 59.554688 299.066406 55.265625 296.714844 51.429688 C 295.917969 50.128906 295.222656 49.445312 293.324219 49.71875 C 286.9375 50.640625 280.445312 50.855469 274.085938 51.898438 C 263.464844 53.636719 252.707031 54.796875 242.640625 59.179688 C 234.195312 62.859375 226.707031 68.019531 219.175781 73.183594 C 215.695312 75.570312 211.839844 77.382812 208.8125 80.453125 C 203.570312 85.769531 198.746094 91.46875 193.117188 96.4375 C 188.65625 100.378906 188.597656 102.492188 191.160156 107.726562 C 191.695312 108.820312 192.300781 109.894531 192.953125 110.921875 C 198.589844 119.777344 203.375 129.140625 206.773438 139.003906 C 213.085938 157.328125 222.945312 173.910156 231.625 191.042969 C 238.195312 204.011719 245.792969 216.441406 250.261719 230.585938 C 250.78125 230.296875 251.191406 230.144531 251.515625 229.878906 C 255.8125 226.339844 260.015625 222.679688 264.402344 219.253906 C 271.214844 213.933594 279.335938 210.953125 286.933594 207.058594 C 295.332031 202.753906 303.277344 197.40625 312.34375 194.574219 C 321.460938 191.726562 330.433594 188.421875 339.699219 186.011719 C 345.59375 184.480469 351.335938 182.320312 357.101562 180.3125 C 361.15625 178.898438 361.234375 178.566406 358.949219 175.03125 Z M 205.863281 105.472656 C 205.234375 104.585938 206.117188 103.804688 206.785156 103.222656 C 216.992188 94.296875 226.367188 84.105469 239.015625 78.582031 C 250.6875 73.484375 262.835938 69.515625 275.273438 66.601562 C 277.070312 66.183594 279.046875 66.542969 280.941406 66.542969 C 280.941406 66.457031 280.941406 66.375 280.9375 66.289062 C 282.386719 66.289062 283.84375 66.199219 285.28125 66.316406 C 286.398438 66.40625 288.039062 66.023438 288.046875 67.886719 C 288.054688 69.695312 286.378906 69.410156 285.292969 69.59375 C 283.988281 69.8125 282.625 69.796875 281.289062 69.746094 C 275.859375 69.535156 270.722656 70.84375 265.648438 72.597656 C 259.148438 74.839844 252.625 77.015625 246.105469 79.207031 C 236.984375 82.273438 229.171875 87.5 222.140625 93.941406 C 217.777344 97.9375 213.085938 101.507812 208.410156 105.101562 C 207.660156 105.679688 206.71875 106.671875 205.863281 105.472656 Z M 214.90625 123.941406 C 214.183594 124.234375 213.027344 124.515625 212.550781 123.472656 C 212.101562 122.488281 213.128906 122.234375 213.742188 121.800781 C 216.476562 119.859375 218.789062 117.460938 221.191406 115.132812 C 232.046875 104.617188 244.53125 96.675781 258.960938 91.972656 C 262.65625 90.769531 266.34375 89.585938 269.863281 87.886719 C 277.210938 84.347656 286.125 82.378906 295.671875 82.074219 C 296.453125 82.113281 297.714844 82.121094 297.992188 83.5 C 298.328125 85.191406 296.898438 85.605469 295.726562 85.777344 C 292.4375 86.269531 289.125 86.683594 285.808594 86.945312 C 277.484375 87.605469 270.695312 92.636719 262.933594 94.894531 C 246.910156 99.554688 233.03125 107.851562 221.199219 119.625 C 219.386719 121.429688 217.300781 122.976562 214.90625 123.941406 Z M 227.171875 141.40625 C 226.398438 142.566406 225.320312 144.242188 223.757812 143.128906 C 221.933594 141.832031 223.53125 140.507812 224.371094 139.195312 C 233.472656 124.984375 247.730469 117.269531 261.910156 109.558594 C 272.84375 103.617188 284.5 99.355469 296.5625 96.296875 C 299.441406 95.566406 302.464844 95.367188 305.035156 94.53125 C 306.230469 94.605469 307.21875 94.472656 307.433594 95.703125 C 307.609375 96.71875 307.152344 97.453125 306.265625 97.875 C 305.566406 98.210938 304.820312 98.609375 304.074219 98.648438 C 297.550781 99.019531 291.6875 101.933594 285.46875 103.484375 C 277.453125 105.488281 270.300781 109.746094 262.90625 113.277344 C 248.929688 119.953125 236.011719 128.117188 227.171875 141.40625 Z M 232.117188 159.058594 C 230.878906 158.035156 232.949219 156.429688 233.726562 155.175781 C 239.304688 146.230469 247.804688 140.304688 256.148438 134.449219 C 263.136719 129.550781 270.75 125.484375 278.328125 121.5 C 287.941406 116.441406 298.714844 115.617188 309.203125 113.882812 C 310.5625 113.613281 312.203125 113.226562 312.46875 115.0625 C 312.738281 116.929688 311.066406 117.222656 309.566406 117.480469 C 299.71875 119.152344 289.441406 119.828125 280.660156 124.871094 C 269.503906 131.273438 257.75 136.820312 248.101562 145.6875 C 244.246094 149.226562 240.019531 152.351562 236.910156 156.644531 C 236.777344 156.824219 236.628906 156.992188 236.46875 157.144531 C 235.210938 158.359375 233.429688 160.140625 232.117188 159.058594 Z M 237.296875 176.972656 C 236.566406 176.863281 236.027344 176.503906 235.835938 175.804688 C 235.652344 175.121094 235.8125 174.609375 236.539062 174.167969 C 251.109375 165.363281 264.269531 154.433594 279.132812 146.054688 C 286.246094 142.046875 293.835938 139.1875 301.375 136.230469 C 306.148438 134.355469 311.472656 135.035156 316.492188 134.132812 C 318.238281 133.816406 320 133.601562 321.664062 133.351562 C 322.933594 133.457031 324.519531 133.074219 324.675781 134.78125 C 324.8125 136.285156 323.492188 136.722656 322.199219 136.925781 C 318.46875 137.5 314.761719 138.394531 311.015625 138.605469 C 300.425781 139.207031 291.355469 144.164062 282.457031 148.996094 C 271.921875 154.71875 261.675781 161.054688 252.234375 168.589844 C 248.6875 171.421875 244.605469 173.578125 240.761719 176.03125 C 239.710938 176.703125 238.601562 177.171875 237.296875 176.972656 Z M 247.523438 191.652344 C 246.789062 192.15625 246.078125 192.695312 245.363281 193.222656 C 244.789062 193.644531 244.199219 193.925781 243.597656 193.292969 C 243.027344 192.699219 243.144531 192.105469 243.667969 191.539062 C 244.421875 190.71875 245.132812 189.859375 245.925781 189.078125 C 257.863281 177.355469 271.742188 168.847656 287.582031 163.375 C 297.113281 160.078125 306.089844 155.308594 315.816406 152.449219 C 319.660156 151.320312 323.425781 150.007812 327.5 150.066406 C 328.722656 150.121094 329.949219 150.167969 331.171875 150.238281 C 332.207031 150.296875 332.871094 150.863281 332.925781 151.886719 C 332.984375 152.960938 332.304688 153.449219 331.269531 153.566406 C 307.714844 156.222656 287.386719 167.722656 266.441406 177.445312 C 259.230469 180.789062 254.046875 187.195312 247.523438 191.652344 Z M 342.859375 163.601562 C 342.53125 165.246094 340.992188 165.269531 339.945312 165.3125 C 332.390625 165.609375 325.464844 168.515625 318.28125 170.339844 C 315.804688 170.96875 313.28125 171.582031 311.113281 172.96875 C 298.300781 181.164062 283.859375 185.992188 270.359375 192.765625 C 264.542969 195.679688 258.851562 198.601562 254.457031 203.542969 C 254.089844 203.957031 253.648438 204.316406 253.191406 204.625 C 252.414062 205.15625 251.480469 205.523438 250.796875 204.667969 C 250.195312 203.914062 250.410156 203.128906 251.148438 202.324219 C 255.003906 198.121094 259.007812 194.195312 264.21875 191.582031 C 274.652344 186.34375 285.417969 181.859375 296.0625 177.097656 C 297.683594 176.371094 299.425781 175.796875 300.867188 174.800781 C 312.183594 166.996094 325.269531 164.585938 338.414062 162.351562 C 339.496094 162.167969 340.632812 162.230469 341.746094 162.265625 C 342.53125 162.292969 342.941406 162.777344 342.859375 163.601562 Z M 342.859375 163.601562 " fill-opacity="1" fill-rule="nonzero"/></svg>