<svg xmlns="http://www.w3.org/2000/svg" xmlns:xlink="http://www.w3.org/1999/xlink" width="500" zoomAndPan="magnify" viewBox="0 0 375 374.999991" height="500" preserveAspectRatio="xMidYMid meet" version="1.0"><defs><clipPath id="0077f8a787"><path d="M 0 32.8125 L 375 32.8125 L 375 71 L 0 71 Z M 0 32.8125 " clip-rule="nonzero"/></clipPath><clipPath id="4ab660f2c1"><path d="M 0 108 L 375 108 L 375 337.3125 L 0 337.3125 Z M 0 108 " clip-rule="nonzero"/></clipPath></defs><path fill="#d3d3d3" d="M 374.882812 70.875 L 374.882812 108.9375 L 0.117188 108.9375 L 0.117188 70.875 Z M 374.882812 70.875 " fill-opacity="1" fill-rule="nonzero"/><path fill="#edeff1" d="M 355.839844 84.195312 L 355.839844 95.617188 L 19.160156 95.617188 L 19.160156 84.195312 Z M 355.839844 84.195312 " fill-opacity="1" fill-rule="nonzero"/><g clip-path="url(#0077f8a787)"><path fill="#6e83b7" d="M 0.117188 70.875 L 0.117188 44.230469 C 0.117188 37.925781 5.234375 32.8125 11.542969 32.8125 L 363.457031 32.8125 C 369.765625 32.8125 374.882812 37.925781 374.882812 44.230469 L 374.882812 70.875 Z M 0.117188 70.875 " fill-opacity="1" fill-rule="nonzero"/></g><g clip-path="url(#4ab660f2c1)"><path fill="#edeff1" d="M 0.117188 325.894531 L 0.117188 108.9375 L 374.882812 108.9375 L 374.882812 325.894531 C 374.882812 332.199219 369.765625 337.3125 363.457031 337.3125 L 11.542969 337.3125 C 5.234375 337.3125 0.117188 332.199219 0.117188 325.894531 Z M 0.117188 325.894531 " fill-opacity="1" fill-rule="nonzero"/></g><path fill="#d3d3d3" d="M 19.160156 155.375 L 122.753906 155.375 L 122.753906 210.945312 L 19.160156 210.945312 Z M 19.160156 155.375 " fill-opacity="1" fill-rule="nonzero"/><path fill="#d3d3d3" d="M 252.246094 155.375 L 355.839844 155.375 L 355.839844 210.945312 L 252.246094 210.945312 Z M 252.246094 155.375 " fill-opacity="1" fill-rule="nonzero"/><path fill="#d3d3d3" d="M 135.703125 155.375 L 239.296875 155.375 L 239.296875 210.945312 L 135.703125 210.945312 Z M 135.703125 155.375 " fill-opacity="1" fill-rule="nonzero"/><path fill="#6e83b7" d="M 63.339844 169.835938 L 84.667969 183.160156 L 63.339844 196.480469 Z M 63.339844 169.835938 " fill-opacity="1" fill-rule="nonzero"/><path fill="#6e83b7" d="M 179.882812 169.835938 L 201.210938 183.160156 L 179.882812 196.480469 Z M 179.882812 169.835938 " fill-opacity="1" fill-rule="nonzero"/><path fill="#6e83b7" d="M 296.425781 169.835938 L 317.753906 183.160156 L 296.425781 196.480469 Z M 296.425781 169.835938 " fill-opacity="1" fill-rule="nonzero"/><path fill="#d3d3d3" d="M 19.160156 131.015625 L 122.753906 131.015625 L 122.753906 141.671875 L 19.160156 141.671875 Z M 19.160156 131.015625 " fill-opacity="1" fill-rule="nonzero"/><path fill="#d3d3d3" d="M 252.246094 131.015625 L 355.839844 131.015625 L 355.839844 141.671875 L 252.246094 141.671875 Z M 252.246094 131.015625 " fill-opacity="1" fill-rule="nonzero"/><path fill="#d3d3d3" d="M 135.703125 131.015625 L 239.296875 131.015625 L 239.296875 141.671875 L 135.703125 141.671875 Z M 135.703125 131.015625 " fill-opacity="1" fill-rule="nonzero"/><path fill="#d3d3d3" d="M 19.160156 254.335938 L 122.753906 254.335938 L 122.753906 309.90625 L 19.160156 309.90625 Z M 19.160156 254.335938 " fill-opacity="1" fill-rule="nonzero"/><path fill="#d3d3d3" d="M 252.246094 254.335938 L 355.839844 254.335938 L 355.839844 309.90625 L 252.246094 309.90625 Z M 252.246094 254.335938 " fill-opacity="1" fill-rule="nonzero"/><path fill="#d3d3d3" d="M 135.703125 254.335938 L 239.296875 254.335938 L 239.296875 309.90625 L 135.703125 309.90625 Z M 135.703125 254.335938 " fill-opacity="1" fill-rule="nonzero"/><path fill="#6e83b7" d="M 63.339844 268.800781 L 84.667969 282.121094 L 63.339844 295.445312 Z M 63.339844 268.800781 " fill-opacity="1" fill-rule="nonzero"/><path fill="#6e83b7" d="M 179.882812 268.800781 L 201.210938 282.121094 L 179.882812 295.445312 Z M 179.882812 268.800781 " fill-opacity="1" fill-rule="nonzero"/><path fill="#6e83b7" d="M 296.425781 268.800781 L 317.753906 282.121094 L 296.425781 295.445312 Z M 296.425781 268.800781 " fill-opacity="1" fill-rule="nonzero"/><path fill="#d3d3d3" d="M 19.160156 229.976562 L 122.753906 229.976562 L 122.753906 240.632812 L 19.160156 240.632812 Z M 19.160156 229.976562 " fill-opacity="1" fill-rule="nonzero"/><path fill="#d3d3d3" d="M 252.246094 229.976562 L 355.839844 229.976562 L 355.839844 240.632812 L 252.246094 240.632812 Z M 252.246094 229.976562 " fill-opacity="1" fill-rule="nonzero"/><path fill="#d3d3d3" d="M 135.703125 229.976562 L 239.296875 229.976562 L 239.296875 240.632812 L 135.703125 240.632812 Z M 135.703125 229.976562 " fill-opacity="1" fill-rule="nonzero"/><path fill="#ffb0aa" d="M 34.394531 51.84375 C 34.394531 52.34375 34.347656 52.839844 34.25 53.328125 C 34.152344 53.820312 34.007812 54.296875 33.816406 54.757812 C 33.625 55.21875 33.386719 55.65625 33.109375 56.074219 C 32.832031 56.488281 32.515625 56.875 32.164062 57.226562 C 31.808594 57.578125 31.425781 57.894531 31.007812 58.171875 C 30.59375 58.449219 30.15625 58.683594 29.691406 58.875 C 29.230469 59.066406 28.753906 59.210938 28.261719 59.308594 C 27.773438 59.40625 27.277344 59.457031 26.777344 59.457031 C 26.277344 59.457031 25.78125 59.40625 25.292969 59.308594 C 24.800781 59.210938 24.324219 59.066406 23.863281 58.875 C 23.398438 58.683594 22.960938 58.449219 22.546875 58.171875 C 22.128906 57.894531 21.746094 57.578125 21.390625 57.226562 C 21.039062 56.875 20.722656 56.488281 20.445312 56.074219 C 20.164062 55.65625 19.929688 55.21875 19.738281 54.757812 C 19.546875 54.296875 19.402344 53.820312 19.304688 53.328125 C 19.207031 52.839844 19.160156 52.34375 19.160156 51.84375 C 19.160156 51.34375 19.207031 50.847656 19.304688 50.359375 C 19.402344 49.867188 19.546875 49.390625 19.738281 48.929688 C 19.929688 48.46875 20.164062 48.03125 20.445312 47.613281 C 20.722656 47.199219 21.039062 46.8125 21.390625 46.460938 C 21.746094 46.109375 22.128906 45.792969 22.546875 45.515625 C 22.960938 45.238281 23.398438 45.003906 23.863281 44.8125 C 24.324219 44.621094 24.800781 44.476562 25.292969 44.378906 C 25.78125 44.28125 26.277344 44.230469 26.777344 44.230469 C 27.277344 44.230469 27.773438 44.28125 28.261719 44.378906 C 28.753906 44.476562 29.230469 44.621094 29.691406 44.8125 C 30.15625 45.003906 30.59375 45.238281 31.007812 45.515625 C 31.425781 45.792969 31.808594 46.109375 32.164062 46.460938 C 32.515625 46.8125 32.832031 47.199219 33.109375 47.613281 C 33.390625 48.03125 33.625 48.46875 33.816406 48.929688 C 34.007812 49.390625 34.152344 49.867188 34.25 50.359375 C 34.347656 50.847656 34.394531 51.34375 34.394531 51.84375 Z M 34.394531 51.84375 " fill-opacity="1" fill-rule="nonzero"/><path fill="#ffe352" d="M 60.292969 51.84375 C 60.292969 52.34375 60.246094 52.839844 60.148438 53.328125 C 60.050781 53.820312 59.90625 54.296875 59.714844 54.757812 C 59.523438 55.21875 59.285156 55.65625 59.007812 56.074219 C 58.730469 56.488281 58.414062 56.875 58.0625 57.226562 C 57.707031 57.578125 57.324219 57.894531 56.90625 58.171875 C 56.492188 58.449219 56.054688 58.683594 55.589844 58.875 C 55.128906 59.066406 54.652344 59.210938 54.160156 59.308594 C 53.671875 59.40625 53.175781 59.457031 52.675781 59.457031 C 52.175781 59.457031 51.679688 59.40625 51.191406 59.308594 C 50.699219 59.210938 50.222656 59.066406 49.761719 58.875 C 49.296875 58.683594 48.859375 58.449219 48.445312 58.171875 C 48.027344 57.894531 47.644531 57.578125 47.289062 57.226562 C 46.9375 56.875 46.621094 56.488281 46.34375 56.074219 C 46.0625 55.65625 45.828125 55.21875 45.636719 54.757812 C 45.445312 54.296875 45.300781 53.820312 45.203125 53.328125 C 45.105469 52.839844 45.058594 52.34375 45.058594 51.84375 C 45.058594 51.34375 45.105469 50.847656 45.203125 50.359375 C 45.300781 49.867188 45.445312 49.390625 45.636719 48.929688 C 45.828125 48.46875 46.0625 48.03125 46.34375 47.613281 C 46.621094 47.199219 46.9375 46.8125 47.289062 46.460938 C 47.644531 46.109375 48.027344 45.792969 48.445312 45.515625 C 48.859375 45.238281 49.296875 45.003906 49.761719 44.8125 C 50.222656 44.621094 50.699219 44.476562 51.191406 44.378906 C 51.679688 44.28125 52.175781 44.230469 52.675781 44.230469 C 53.175781 44.230469 53.671875 44.28125 54.160156 44.378906 C 54.652344 44.476562 55.128906 44.621094 55.589844 44.8125 C 56.054688 45.003906 56.492188 45.238281 56.90625 45.515625 C 57.324219 45.792969 57.707031 46.109375 58.0625 46.460938 C 58.414062 46.8125 58.730469 47.199219 59.007812 47.613281 C 59.285156 48.03125 59.523438 48.46875 59.714844 48.929688 C 59.90625 49.390625 60.050781 49.867188 60.148438 50.359375 C 60.246094 50.847656 60.292969 51.34375 60.292969 51.84375 Z M 60.292969 51.84375 " fill-opacity="1" fill-rule="nonzero"/><path fill="#98ca69" d="M 86.191406 51.84375 C 86.191406 52.34375 86.144531 52.839844 86.046875 53.328125 C 85.949219 53.820312 85.804688 54.296875 85.613281 54.757812 C 85.421875 55.21875 85.183594 55.65625 84.90625 56.074219 C 84.628906 56.488281 84.3125 56.875 83.960938 57.226562 C 83.605469 57.578125 83.222656 57.894531 82.804688 58.171875 C 82.390625 58.449219 81.953125 58.683594 81.488281 58.875 C 81.027344 59.066406 80.550781 59.210938 80.058594 59.308594 C 79.570312 59.40625 79.074219 59.457031 78.574219 59.457031 C 78.074219 59.457031 77.578125 59.40625 77.089844 59.308594 C 76.597656 59.210938 76.121094 59.066406 75.660156 58.875 C 75.195312 58.683594 74.757812 58.449219 74.34375 58.171875 C 73.925781 57.894531 73.542969 57.578125 73.1875 57.226562 C 72.835938 56.875 72.519531 56.488281 72.242188 56.074219 C 71.960938 55.65625 71.726562 55.21875 71.535156 54.757812 C 71.34375 54.296875 71.199219 53.820312 71.101562 53.328125 C 71.003906 52.839844 70.957031 52.34375 70.957031 51.84375 C 70.957031 51.34375 71.003906 50.847656 71.101562 50.359375 C 71.199219 49.867188 71.34375 49.390625 71.535156 48.929688 C 71.726562 48.46875 71.960938 48.03125 72.242188 47.613281 C 72.519531 47.199219 72.835938 46.8125 73.1875 46.460938 C 73.542969 46.109375 73.925781 45.792969 74.34375 45.515625 C 74.757812 45.238281 75.195312 45.003906 75.660156 44.8125 C 76.121094 44.621094 76.597656 44.476562 77.089844 44.378906 C 77.578125 44.28125 78.074219 44.230469 78.574219 44.230469 C 79.074219 44.230469 79.570312 44.28125 80.058594 44.378906 C 80.550781 44.476562 81.027344 44.621094 81.488281 44.8125 C 81.953125 45.003906 82.390625 45.238281 82.804688 45.515625 C 83.222656 45.792969 83.605469 46.109375 83.960938 46.460938 C 84.3125 46.8125 84.628906 47.199219 84.90625 47.613281 C 85.183594 48.03125 85.421875 48.46875 85.613281 48.929688 C 85.804688 49.390625 85.949219 49.867188 86.046875 50.359375 C 86.144531 50.847656 86.191406 51.34375 86.191406 51.84375 Z M 86.191406 51.84375 " fill-opacity="1" fill-rule="nonzero"/></svg>